<svg xmlns="http://www.w3.org/2000/svg" viewBox="0 0 1200 780" width="1200" height="780">
  <defs>
    <linearGradient id="bgGrad2" x1="0%" y1="0%" x2="100%" y2="100%">
      <stop offset="0%" stop-color="#14151A"/>
      <stop offset="100%" stop-color="#0A0B0F"/>
    </linearGradient>
  </defs>
  <rect width="1200" height="780" fill="url(#bgGrad2)"/>
  <g opacity="0.08" stroke="#FFFFFF" stroke-width="1">
    <line x1="0" y1="130" x2="1200" y2="130"/>
    <line x1="0" y1="260" x2="1200" y2="260"/>
    <line x1="0" y1="390" x2="1200" y2="390"/>
    <line x1="0" y1="520" x2="1200" y2="520"/>
    <line x1="0" y1="650" x2="1200" y2="650"/>
    <line x1="200" y1="0" x2="200" y2="780"/>
    <line x1="400" y1="0" x2="400" y2="780"/>
    <line x1="600" y1="0" x2="600" y2="780"/>
    <line x1="800" y1="0" x2="800" y2="780"/>
    <line x1="1000" y1="0" x2="1000" y2="780"/>
  </g>
  <!-- tooth + phone icon -->
  <g transform="translate(500,250)" opacity="0.9">
    <path d="M100 0c-18 0-28 10-40 10S38 0 20 0C-2 0-16 20-14 46c2 24 14 46 22 70 6 18 10 40 26 40 14 0 14-26 22-26s8 26 22 26c16 0 20-22 26-40 8-24 20-46 22-70C128 20 114 0 100 0z" fill="none" stroke="#1497E0" stroke-width="4"/>
    <circle cx="53" cy="60" r="5" fill="#1497E0"/>
  </g>
  <g transform="translate(660,225)">
    <rect x="0" y="0" width="90" height="150" rx="14" fill="none" stroke="#F35A38" stroke-width="3" opacity="0.85"/>
    <line x1="0" y1="118" x2="90" y2="118" stroke="#F35A38" stroke-width="3" opacity="0.85"/>
    <rect x="14" y="18" width="62" height="88" rx="4" fill="#F35A38" opacity="0.18"/>
    <path d="M32 60l14 14 24-28" stroke="#F35A38" stroke-width="4" fill="none" stroke-linecap="round" stroke-linejoin="round" opacity="0.9"/>
  </g>
  <text x="600" y="600" text-anchor="middle" font-family="Arial, sans-serif" font-size="22" fill="#73767B">Espacio para imagen — consultorio odontológico / paciente sonriendo</text>
  <text x="600" y="632" text-anchor="middle" font-family="Arial, sans-serif" font-size="16" fill="#4A4C52">Reemplazar por una foto real cuando esté disponible</text>
</svg>
